<?xml version="1.0" standalone="no"?>
<!DOCTYPE svg PUBLIC "-//W3C//DTD SVG 20010904//EN"
 "http://www.w3.org/TR/2001/REC-SVG-20010904/DTD/svg10.dtd">
<svg version="1.0" xmlns="http://www.w3.org/2000/svg"
 width="90.000000pt" height="74.000000pt" viewBox="0 0 90.000000 74.000000"
 preserveAspectRatio="xMidYMid meet">

<g transform="translate(0.000000,74.000000) scale(0.100000,-0.100000)"
fill="#000000" stroke="none">
<path d="M426 681 c-4 -5 -3 -16 0 -25 4 -11 -2 -17 -21 -22 -26 -6 -38 1 -48
30 -2 5 -13 4 -25 -3 -18 -9 -20 -16 -12 -30 8 -15 5 -22 -15 -35 -23 -15 -26
-15 -31 -1 -8 19 -28 19 -44 0 -10 -13 -10 -19 4 -34 15 -16 15 -19 -2 -34
-11 -10 -26 -14 -40 -10 -28 7 -43 -24 -19 -42 20 -14 23 -54 5 -57 -7 -1 -29
-2 -48 -3 -66 -4 -71 -5 -65 -15 4 -7 64 -10 158 -9 l152 2 36 -74 c22 -44 38
-68 43 -61 4 7 -7 39 -25 72 -27 52 -30 64 -21 85 11 24 10 25 -22 25 -19 0
-36 -4 -38 -9 -3 -9 -39 -14 -95 -12 -38 1 -36 13 13 84 46 65 125 102 203 94
80 -7 153 -54 187 -119 13 -26 24 -51 24 -55 0 -14 -123 -9 -128 5 -2 7 -19
12 -38 12 -32 0 -33 -1 -22 -25 l11 -24 168 0 c132 -1 169 2 169 12 0 9 -14
13 -49 11 -56 -2 -66 2 -75 33 -5 16 -2 25 14 33 16 9 18 15 10 30 -8 15 -17
18 -39 14 -24 -5 -30 -2 -36 15 -4 13 -1 28 6 38 11 13 10 17 -6 29 -17 13
-21 13 -32 -2 -11 -15 -16 -16 -38 -4 -18 10 -24 19 -19 33 4 11 1 23 -7 28
-20 13 -29 11 -29 -5 0 -21 -17 -29 -46 -22 -17 5 -24 13 -24 31 0 18 -5 25
-19 25 -11 0 -22 -4 -25 -9z"/>
<path d="M157 353 c-10 -10 -34 -22 -55 -28 -38 -11 -54 -38 -28 -48 7 -3 29
6 48 19 32 24 33 25 36 5 4 -26 19 -27 27 -2 3 11 16 22 28 24 l22 4 -22 2
c-16 1 -20 6 -16 21 7 25 -16 27 -40 3z m-37 -42 c0 -12 -20 -25 -27 -18 -7 7
6 27 18 27 5 0 9 -4 9 -9z"/>
<path d="M260 363 c44 -5 55 -16 35 -33 -12 -10 -15 -10 -15 5 0 25 -24 13
-34 -18 -11 -31 0 -49 17 -27 7 8 24 21 40 27 16 8 27 20 27 33 0 18 -6 20
-52 18 -41 -1 -45 -2 -18 -5z"/>
<path d="M626 345 c-3 -9 -18 -15 -40 -15 -47 0 -66 -9 -66 -31 0 -27 46 -26
53 1 3 11 12 20 21 20 9 0 16 -8 16 -20 0 -14 7 -20 23 -20 15 0 18 3 9 8 -10
7 -10 15 -2 36 12 33 12 36 1 36 -5 0 -11 -7 -15 -15z"/>
<path d="M674 324 c-17 -40 -13 -54 10 -35 10 8 16 9 21 1 3 -5 16 -10 28 -9
12 0 16 3 10 6 -7 2 -13 16 -13 29 0 14 -4 22 -10 19 -5 -3 -10 1 -10 9 0 29
-21 17 -36 -20z"/>
<path d="M791 327 c-6 -8 -8 -17 -4 -20 3 -4 1 -7 -5 -7 -7 0 -12 -4 -12 -10
0 -5 17 -10 38 -9 20 0 31 3 25 6 -7 2 -13 16 -13 29 0 27 -12 31 -29 11z"/>
<path d="M150 260 c0 -6 10 -8 24 -4 35 8 55 -29 30 -57 -14 -15 -15 -21 -4
-34 9 -11 16 -13 24 -5 28 28 80 -6 55 -36 -11 -14 -10 -18 6 -30 17 -13 21
-12 35 5 21 27 60 12 60 -24 0 -19 5 -25 21 -25 12 0 23 8 26 20 7 28 53 27
60 -1 8 -30 48 -22 48 10 1 34 40 51 59 26 21 -28 49 -12 41 23 -7 34 18 63
37 44 18 -18 36 -14 43 9 5 14 1 25 -12 34 -14 11 -16 16 -5 26 18 19 15 29
-8 29 -11 0 -30 -15 -44 -36 -87 -128 -287 -134 -376 -10 -31 42 -37 46 -77
46 -24 0 -43 -5 -43 -10z"/>
</g>
</svg>
